<svg width="26" height="16" viewBox="0 0 26 16" fill="none" xmlns="http://www.w3.org/2000/svg">
<path d="M25.2348 5.07244C24.4443 0.899423 20.2713 0.380859 20.2713 0.380859H1.5816C0.962692 0.380859 0.88686 1.19509 0.88686 1.19509C0.88686 1.19509 0.803369 8.67634 0.866179 13.2722C1.03469 15.7447 3.50725 15.9998 3.50725 15.9998C3.50725 15.9998 11.949 15.9761 15.7268 15.9485C18.217 15.5134 18.4682 13.3266 18.4391 12.1339C22.8879 12.3813 26.0199 9.24163 25.2348 5.07244ZM13.936 8.65949C12.6637 10.1393 9.83955 12.7168 9.83955 12.7168C9.83955 12.7168 9.71622 12.8402 9.52014 12.7406C9.4443 12.6847 9.4129 12.6487 9.4129 12.6487C8.95715 12.1983 5.97292 9.53653 5.2912 8.61123C4.56889 7.62543 4.23033 5.8545 5.20005 4.8212C6.16901 3.79173 8.26777 3.71207 9.65571 5.23559C9.65571 5.23559 11.2512 3.41641 13.1983 4.25438C15.1408 5.09312 15.0696 7.33053 13.936 8.65949ZM20.2399 9.14665C19.2901 9.26614 18.5211 9.17422 18.5211 9.17422V3.37351H20.328C20.328 3.37351 22.3433 3.9365 22.3433 6.06667C22.3433 8.02143 21.3368 8.79124 20.2399 9.14665Z" fill="white"/>
</svg>
