<svg width="480" height="479" viewBox="0 0 480 479" fill="none" xmlns="http://www.w3.org/2000/svg">
<path d="M240.454 354.271V478.543L240.121 478.876C230.392 456.985 221.989 449.868 203.869 442.638C226.543 410.163 233.297 390.304 240.121 353.451L240.454 354.271Z" fill="url(#paint0_radial_383_20)"/>
<path d="M240.822 353.416C247.646 390.269 254.401 410.128 277.074 442.603C258.954 449.833 250.551 456.95 240.822 478.841L240.489 478.508V354.235L240.822 353.416Z" fill="url(#paint1_radial_383_20)"/>
<path d="M178.277 335.616C164.128 370.324 159.094 390.687 160.653 430.258C141.495 426.571 130.578 428.03 110.57 441.213L110.47 440.753L177.555 336.126L178.277 335.616Z" fill="url(#paint2_radial_383_20)"/>
<path d="M302.445 336.126L369.53 440.753L369.43 441.213C349.422 428.03 338.505 426.571 319.347 430.258C320.906 390.687 315.872 370.324 301.723 335.616L302.445 336.126Z" fill="url(#paint3_radial_383_20)"/>
<path d="M177.544 336.078L110.459 440.705L110 440.806C113.626 417.127 110.393 406.603 99.041 390.741C135.66 375.631 152.067 362.555 177.706 335.209L177.544 336.078Z" fill="url(#paint4_radial_383_20)"/>
<path d="M302.294 335.209C327.933 362.555 344.34 375.631 380.959 390.741C369.607 406.602 366.374 417.127 370 440.805L369.541 440.704L302.456 336.078L302.294 335.209Z" fill="url(#paint5_radial_383_20)"/>
<path d="M140.368 295.775C111.614 319.828 97.633 335.468 80.4834 371.167C65.2788 358.946 54.9483 355.127 31.0947 357.416L31.2207 356.963L139.491 295.889L140.368 295.775Z" fill="url(#paint6_radial_383_20)"/>
<path d="M340.509 295.889L448.779 356.963L448.905 357.416C425.052 355.127 414.721 358.946 399.517 371.167C382.367 335.468 368.386 319.828 339.632 295.775L340.509 295.889Z" fill="url(#paint7_radial_383_20)"/>
<path d="M139.505 295.841L31.2344 356.915L30.7812 356.789C45.0723 337.561 47.1417 326.747 44.5361 307.419C83.9719 311.198 104.594 307.32 140.055 295.148L139.505 295.841Z" fill="url(#paint8_radial_383_20)"/>
<path d="M339.945 295.148C375.406 307.32 396.028 311.198 435.464 307.419C432.858 326.747 434.928 337.561 449.219 356.789L448.766 356.915L340.495 295.841L339.945 295.148Z" fill="url(#paint9_radial_383_20)"/>
<path d="M125.472 239.788C88.6046 246.609 68.7385 253.361 36.252 276.026C29.0187 257.914 21.8994 249.513 0 239.788L0.333008 239.455H124.652L125.472 239.788Z" fill="url(#paint10_radial_383_20)"/>
<path d="M480 239.788C458.101 249.513 450.981 257.913 443.748 276.026C411.261 253.361 391.395 246.609 354.528 239.788L355.348 239.455H479.667L480 239.788Z" fill="url(#paint11_radial_383_20)"/>
<path d="M36.2871 202.85C68.7736 225.515 88.6398 232.267 125.507 239.088L124.688 239.421H0.368164L0.0351562 239.088C21.9346 229.363 29.0538 220.962 36.2871 202.85Z" fill="url(#paint12_radial_383_20)"/>
<path d="M443.713 202.85C450.946 220.962 458.065 229.363 479.965 239.088L479.632 239.42H355.312L354.493 239.088C391.36 232.267 411.226 225.515 443.713 202.85Z" fill="url(#paint13_radial_383_20)"/>
<path d="M142.804 177.487L143.313 178.209C108.592 164.065 88.2216 159.034 48.6357 160.593C52.3236 141.441 50.8644 130.529 37.6768 110.528L38.1367 110.428L142.804 177.487Z" fill="url(#paint14_radial_383_20)"/>
<path d="M442.323 110.528C429.136 130.529 427.676 141.441 431.364 160.593C391.778 159.034 371.408 164.065 336.687 178.209L337.196 177.487L441.863 110.428L442.323 110.528Z" fill="url(#paint15_radial_383_20)"/>
<path d="M88.168 99.0029C103.284 135.608 116.364 152.009 143.721 177.639L142.852 177.477L38.1855 110.417L38.085 109.958C61.7722 113.583 72.3005 110.351 88.168 99.0029Z" fill="url(#paint16_radial_383_20)"/>
<path d="M391.832 99.0029C407.699 110.351 418.228 113.583 441.915 109.958L441.814 110.417L337.148 177.477L336.279 177.639C363.636 152.009 376.716 135.608 391.832 99.0029Z" fill="url(#paint17_radial_383_20)"/>
<path d="M121.959 31.209L183.057 139.438L183.169 140.315C159.108 111.572 143.462 97.5953 107.75 80.4521C119.976 65.2535 123.796 54.9273 121.506 31.083L121.959 31.209Z" fill="url(#paint18_radial_383_20)"/>
<path d="M358.494 31.083C356.204 54.9273 360.024 65.2534 372.25 80.4521C336.538 97.5953 320.892 111.572 296.831 140.315L296.943 139.438L358.041 31.209L358.494 31.083Z" fill="url(#paint19_radial_383_20)"/>
<path d="M122.133 30.7686C141.368 45.0542 152.186 47.1241 171.521 44.5195C167.741 83.9402 171.621 104.553 183.797 140.001L183.104 139.452L122.007 31.2227L122.133 30.7686Z" fill="url(#paint20_radial_383_20)"/>
<path d="M357.993 31.2227L296.896 139.451L296.203 140.001C308.379 104.553 312.259 83.9402 308.479 44.5195C327.814 47.1241 338.632 45.0542 357.867 30.7686L357.993 31.2227Z" fill="url(#paint21_radial_383_20)"/>
<path d="M240.454 0.368164V124.641L240.121 125.459C233.297 88.6061 226.543 68.7477 203.869 36.2734C221.989 29.0429 230.392 21.9262 240.121 0.0351562L240.454 0.368164Z" fill="url(#paint22_radial_383_20)"/>
<path d="M240.822 0C250.551 21.8911 258.954 29.0077 277.074 36.2383C254.401 68.7126 247.646 88.5716 240.822 125.425L240.489 124.605V0.333008L240.822 0Z" fill="url(#paint23_radial_383_20)"/>
<defs>
<radialGradient id="paint0_radial_383_20" cx="0" cy="0" r="1" gradientUnits="userSpaceOnUse" gradientTransform="translate(239.528 239.438) rotate(1.15302) scale(385.913 385.768)">
<stop offset="0.0941704" stop-color="#A24DFE" stop-opacity="0"/>
<stop offset="1" stop-color="#A24DFE"/>
</radialGradient>
<radialGradient id="paint1_radial_383_20" cx="0" cy="0" r="1" gradientUnits="userSpaceOnUse" gradientTransform="translate(239.528 239.438) rotate(1.15302) scale(385.913 385.768)">
<stop offset="0.0941704" stop-color="#A24DFE" stop-opacity="0"/>
<stop offset="1" stop-color="#A24DFE"/>
</radialGradient>
<radialGradient id="paint2_radial_383_20" cx="0" cy="0" r="1" gradientUnits="userSpaceOnUse" gradientTransform="translate(239.528 239.438) rotate(1.15302) scale(385.913 385.768)">
<stop offset="0.0941704" stop-color="#A24DFE" stop-opacity="0"/>
<stop offset="1" stop-color="#A24DFE"/>
</radialGradient>
<radialGradient id="paint3_radial_383_20" cx="0" cy="0" r="1" gradientUnits="userSpaceOnUse" gradientTransform="translate(239.528 239.438) rotate(1.15302) scale(385.913 385.768)">
<stop offset="0.0941704" stop-color="#A24DFE" stop-opacity="0"/>
<stop offset="1" stop-color="#A24DFE"/>
</radialGradient>
<radialGradient id="paint4_radial_383_20" cx="0" cy="0" r="1" gradientUnits="userSpaceOnUse" gradientTransform="translate(239.528 239.438) rotate(1.15302) scale(385.913 385.768)">
<stop offset="0.0941704" stop-color="#A24DFE" stop-opacity="0"/>
<stop offset="1" stop-color="#A24DFE"/>
</radialGradient>
<radialGradient id="paint5_radial_383_20" cx="0" cy="0" r="1" gradientUnits="userSpaceOnUse" gradientTransform="translate(239.528 239.438) rotate(1.15302) scale(385.913 385.768)">
<stop offset="0.0941704" stop-color="#A24DFE" stop-opacity="0"/>
<stop offset="1" stop-color="#A24DFE"/>
</radialGradient>
<radialGradient id="paint6_radial_383_20" cx="0" cy="0" r="1" gradientUnits="userSpaceOnUse" gradientTransform="translate(239.528 239.438) rotate(1.15302) scale(385.913 385.768)">
<stop offset="0.0941704" stop-color="#A24DFE" stop-opacity="0"/>
<stop offset="1" stop-color="#A24DFE"/>
</radialGradient>
<radialGradient id="paint7_radial_383_20" cx="0" cy="0" r="1" gradientUnits="userSpaceOnUse" gradientTransform="translate(239.528 239.438) rotate(1.15302) scale(385.913 385.768)">
<stop offset="0.0941704" stop-color="#A24DFE" stop-opacity="0"/>
<stop offset="1" stop-color="#A24DFE"/>
</radialGradient>
<radialGradient id="paint8_radial_383_20" cx="0" cy="0" r="1" gradientUnits="userSpaceOnUse" gradientTransform="translate(239.528 239.438) rotate(1.15302) scale(385.913 385.768)">
<stop offset="0.0941704" stop-color="#A24DFE" stop-opacity="0"/>
<stop offset="1" stop-color="#A24DFE"/>
</radialGradient>
<radialGradient id="paint9_radial_383_20" cx="0" cy="0" r="1" gradientUnits="userSpaceOnUse" gradientTransform="translate(239.528 239.438) rotate(1.15302) scale(385.913 385.768)">
<stop offset="0.0941704" stop-color="#A24DFE" stop-opacity="0"/>
<stop offset="1" stop-color="#A24DFE"/>
</radialGradient>
<radialGradient id="paint10_radial_383_20" cx="0" cy="0" r="1" gradientUnits="userSpaceOnUse" gradientTransform="translate(239.528 239.438) rotate(1.15302) scale(385.913 385.768)">
<stop offset="0.0941704" stop-color="#A24DFE" stop-opacity="0"/>
<stop offset="1" stop-color="#A24DFE"/>
</radialGradient>
<radialGradient id="paint11_radial_383_20" cx="0" cy="0" r="1" gradientUnits="userSpaceOnUse" gradientTransform="translate(239.528 239.438) rotate(1.15302) scale(385.913 385.768)">
<stop offset="0.0941704" stop-color="#A24DFE" stop-opacity="0"/>
<stop offset="1" stop-color="#A24DFE"/>
</radialGradient>
<radialGradient id="paint12_radial_383_20" cx="0" cy="0" r="1" gradientUnits="userSpaceOnUse" gradientTransform="translate(239.528 239.438) rotate(1.15302) scale(385.913 385.768)">
<stop offset="0.0941704" stop-color="#A24DFE" stop-opacity="0"/>
<stop offset="1" stop-color="#A24DFE"/>
</radialGradient>
<radialGradient id="paint13_radial_383_20" cx="0" cy="0" r="1" gradientUnits="userSpaceOnUse" gradientTransform="translate(239.528 239.438) rotate(1.15302) scale(385.913 385.768)">
<stop offset="0.0941704" stop-color="#A24DFE" stop-opacity="0"/>
<stop offset="1" stop-color="#A24DFE"/>
</radialGradient>
<radialGradient id="paint14_radial_383_20" cx="0" cy="0" r="1" gradientUnits="userSpaceOnUse" gradientTransform="translate(239.528 239.438) rotate(1.15302) scale(385.913 385.768)">
<stop offset="0.0941704" stop-color="#A24DFE" stop-opacity="0"/>
<stop offset="1" stop-color="#A24DFE"/>
</radialGradient>
<radialGradient id="paint15_radial_383_20" cx="0" cy="0" r="1" gradientUnits="userSpaceOnUse" gradientTransform="translate(239.528 239.438) rotate(1.15302) scale(385.913 385.768)">
<stop offset="0.0941704" stop-color="#A24DFE" stop-opacity="0"/>
<stop offset="1" stop-color="#A24DFE"/>
</radialGradient>
<radialGradient id="paint16_radial_383_20" cx="0" cy="0" r="1" gradientUnits="userSpaceOnUse" gradientTransform="translate(239.528 239.438) rotate(1.15302) scale(385.913 385.768)">
<stop offset="0.0941704" stop-color="#A24DFE" stop-opacity="0"/>
<stop offset="1" stop-color="#A24DFE"/>
</radialGradient>
<radialGradient id="paint17_radial_383_20" cx="0" cy="0" r="1" gradientUnits="userSpaceOnUse" gradientTransform="translate(239.528 239.438) rotate(1.15302) scale(385.913 385.768)">
<stop offset="0.0941704" stop-color="#A24DFE" stop-opacity="0"/>
<stop offset="1" stop-color="#A24DFE"/>
</radialGradient>
<radialGradient id="paint18_radial_383_20" cx="0" cy="0" r="1" gradientUnits="userSpaceOnUse" gradientTransform="translate(239.528 239.438) rotate(1.15302) scale(385.913 385.768)">
<stop offset="0.0941704" stop-color="#A24DFE" stop-opacity="0"/>
<stop offset="1" stop-color="#A24DFE"/>
</radialGradient>
<radialGradient id="paint19_radial_383_20" cx="0" cy="0" r="1" gradientUnits="userSpaceOnUse" gradientTransform="translate(239.528 239.438) rotate(1.15302) scale(385.913 385.768)">
<stop offset="0.0941704" stop-color="#A24DFE" stop-opacity="0"/>
<stop offset="1" stop-color="#A24DFE"/>
</radialGradient>
<radialGradient id="paint20_radial_383_20" cx="0" cy="0" r="1" gradientUnits="userSpaceOnUse" gradientTransform="translate(239.528 239.438) rotate(1.15302) scale(385.913 385.768)">
<stop offset="0.0941704" stop-color="#A24DFE" stop-opacity="0"/>
<stop offset="1" stop-color="#A24DFE"/>
</radialGradient>
<radialGradient id="paint21_radial_383_20" cx="0" cy="0" r="1" gradientUnits="userSpaceOnUse" gradientTransform="translate(239.528 239.438) rotate(1.15302) scale(385.913 385.768)">
<stop offset="0.0941704" stop-color="#A24DFE" stop-opacity="0"/>
<stop offset="1" stop-color="#A24DFE"/>
</radialGradient>
<radialGradient id="paint22_radial_383_20" cx="0" cy="0" r="1" gradientUnits="userSpaceOnUse" gradientTransform="translate(239.528 239.438) rotate(1.15302) scale(385.913 385.768)">
<stop offset="0.0941704" stop-color="#A24DFE" stop-opacity="0"/>
<stop offset="1" stop-color="#A24DFE"/>
</radialGradient>
<radialGradient id="paint23_radial_383_20" cx="0" cy="0" r="1" gradientUnits="userSpaceOnUse" gradientTransform="translate(239.528 239.438) rotate(1.15302) scale(385.913 385.768)">
<stop offset="0.0941704" stop-color="#A24DFE" stop-opacity="0"/>
<stop offset="1" stop-color="#A24DFE"/>
</radialGradient>
</defs>
</svg>
