<svg width="13" height="21" viewBox="0 0 13 21" fill="none" xmlns="http://www.w3.org/2000/svg">
<path fill-rule="evenodd" clip-rule="evenodd" d="M4.76683 0.0882158C3.80411 0.329166 3.15127 1.2525 3.15127 2.37293C3.15127 3.5583 3.88243 4.41116 5.09426 4.63934C5.57231 4.72935 5.57585 4.7252 5.64663 3.98788C5.73571 3.06101 6.20484 2.38401 7.00155 2.03243C7.33805 1.88396 7.61331 1.67732 7.61331 1.57315C7.61331 1.24665 6.80368 0.404559 6.27916 0.185304C5.77356 -0.0259507 5.33505 -0.0541078 4.76683 0.0882158ZM7.30866 2.39909C6.31162 2.89992 5.8525 3.98712 6.22469 4.96599C6.37317 5.35665 6.39225 5.36065 8.06567 5.36065C9.96265 5.36065 10.0751 5.29619 10.0751 4.20914C10.0751 3.37874 9.68585 2.76282 8.94946 2.42848C8.15045 2.06582 7.97796 2.06275 7.30866 2.39909ZM2.38195 5.86656C1.90082 6.10874 1.78835 6.80605 2.16347 7.22056C2.41303 7.49643 2.68952 7.51474 6.6132 7.51474C10.5369 7.51474 10.8134 7.49643 11.0629 7.22056C11.438 6.80605 11.3256 6.10874 10.8444 5.86656C10.5659 5.72639 9.39782 5.67284 6.6132 5.67284C3.82858 5.67284 2.66044 5.72639 2.38195 5.86656ZM2.22809 8.78412C2.22809 8.99722 2.01499 9.30033 1.67372 9.57267C0.741613 10.3163 0.689453 10.5968 0.689453 14.8626C0.689453 18.5204 0.70407 18.71 1.03565 19.3567C1.6491 20.5531 1.82958 20.5931 6.61073 20.5928C11.1825 20.5927 11.464 20.5431 12.1414 19.6206C12.4425 19.2105 12.4623 18.9556 12.5028 15.0047C12.5512 10.2818 12.5032 10.0376 11.4076 9.43804C11.0186 9.22509 10.8452 9.02368 10.8449 8.78412L10.8444 8.43792H6.53626H2.22809V8.78412ZM6.14468 12.4324C6.5955 12.7295 6.60366 12.7295 7.08602 12.4314C8.55095 11.526 10.2644 12.743 9.84987 14.3946C9.79063 14.6302 9.06024 15.5095 8.18491 16.399L6.62535 17.9839L5.18504 16.5575C3.5807 14.9685 3.30513 14.5552 3.30513 13.7385C3.30513 13.3049 3.42438 13.0577 3.82827 12.6538C4.26339 12.2187 4.46403 12.1308 5.02071 12.1317C5.42445 12.1323 5.8705 12.2516 6.14468 12.4324Z" fill="white"/>
</svg>
